<svg xmlns="http://www.w3.org/2000/svg" viewBox="0 0 320 10">
  <defs>
    <linearGradient id="glitchtlphone-a" x1="20.634%" x2="97.278%" y1="50%" y2="50%">
      <stop offset="0%" stop-color="#4173E6"/>
      <stop offset="100%" stop-color="#41AAE6"/>
    </linearGradient>
  </defs>
  <path fill="url(#glitchtlphone-a)" fill-rule="evenodd" d="M29.3166213,19.0000071 L330.92001,19.0000071 L330.92001,19.000007 C334.489197,19.000007 337.78781,20.9023272 339.575404,23.9915987 C339.578647,23.9972019 339.582577,24.0000035 339.587196,24.0000035 C339.699858,24.0000035 340.170793,25.666669 341,29 C198.298095,29 91.6314285,29 21,29 C21,29 21,29 21,29 L22.4128035,24.5016424 C23.0403577,23.3234768 23.5112922,22.4895976 23.8256071,22.000005 C23.8256071,22.000005 23.8256071,22.000005 23.8256071,22.000005 L23.8256071,22.000005 C25.0258675,20.1304186 27.0949152,18.9999975 29.3166213,18.9999975 Z" transform="translate(-21 -19)"/>
</svg>