<svg xmlns="http://www.w3.org/2000/svg" viewBox="0 0 85 60">
  <defs>
    <linearGradient id="paymenticon-a" x1="50%" x2="50%" y1="3.45%" y2="100%">
      <stop offset="0%" stop-color="#41AAE6"/>
      <stop offset="100%" stop-color="#4173E6"/>
    </linearGradient>
  </defs>
  <g fill="none" fill-rule="evenodd" transform="translate(1 1)">
    <g stroke="#41AAE6" transform="translate(2 10)">
      <path stroke-linecap="square" d="M6 27.5500031L25.5 27.5500031M6 21.55L30.5 21.55"/>
      <path stroke-linecap="square" stroke-width="1.3" d="M.5 10.65L67.5 10.65M.5 1.75L67.5 1.5"/>
      <rect width="15" height="6" x="39.5" y="21.5"/>
    </g>
    <path stroke="url(#paymenticon-a)" stroke-width="2" d="M59,47.5 L7.94444444,47.5 C3.55684893,47.5 5.3732548e-16,44.0973641 0,39.9 L0,7.6 C-5.3732548e-16,3.4026359 3.55684893,7.71043276e-16 7.94444444,0 L63.5555556,0 C67.9431511,-7.71043276e-16 71.5,3.4026359 71.5,7.6 L71.5,33.9285714"/>
    <path fill="#4173E6" fill-rule="nonzero" d="M3.81636469,21.4911436 C0.56694802,18.352752 -0.73623584,13.7052674 0.40769286,9.33495412 C1.55162156,4.96464088 4.96464088,1.55162156 9.33495412,0.40769286 C13.7052674,-0.73623584 18.352752,0.56694802 21.4911436,3.81636469 C26.228237,8.72103943 26.1604899,16.5172655 21.3388777,21.3388777 C16.5172655,26.1604899 8.72103943,26.228237 3.81636469,21.4911436 L3.81636469,21.4911436 Z M19.7286657,19.7286657 C23.6360314,15.8212999 23.6360314,9.48620838 19.7286657,5.57884264 C15.8212999,1.67147691 9.48620838,1.67147691 5.57884264,5.57884264 C1.67147691,9.48620838 1.67147691,15.8212999 5.57884264,19.7286657 C9.48620838,23.6360314 15.8212999,23.6360314 19.7286657,19.7286657 Z M8.52880575,11.7662653 L11.4037698,14.6537291 L16.7787026,9.27879637 L18.5286807,11.0537742 L11.4037698,18.1536854 L6.77882763,13.5287432 L8.52880575,11.7537654 L8.52880575,11.7662653 Z" transform="translate(59 34)"/>
  </g>
</svg>