<svg xmlns="http://www.w3.org/2000/svg" viewBox="0 0 453 10">
  <defs>
    <linearGradient id="topline-a" x1="20.634%" x2="97.278%" y1="50%" y2="50%">
      <stop offset="0%" stop-color="#4173E6"/>
      <stop offset="100%" stop-color="#41AAE6"/>
    </linearGradient>
  </defs>
  <path fill="url(#topline-a)" fill-rule="evenodd" d="M10.7803114,0 L442.327385,5.41632169e-15 L442.327385,-2.14072398e-06 C445.894549,-2.14072398e-06 449.191612,1.90017961 450.979942,4.98668714 C450.985084,4.99556238 450.99177,5 451,5 C451.159487,5 451.826154,6.66666667 453,10 C250.987616,10 99.987616,10 0,10 C0,10 0,10 0,10 L2,5.50163926 C2.88838139,4.32347277 3.55504806,3.48959301 4,3 C4,3 4,3 4,3 L4,3 C5.73645413,1.08933115 8.19846543,-6.83319011e-06 10.7803114,-6.83319011e-06 Z"/>
</svg>