<?xml version="1.0" standalone="no"?>
<!DOCTYPE svg PUBLIC "-//W3C//DTD SVG 20010904//EN"
 "http://www.w3.org/TR/2001/REC-SVG-20010904/DTD/svg10.dtd">
<svg version="1.0" xmlns="http://www.w3.org/2000/svg"
 width="400.000000pt" height="400.000000pt" viewBox="0 0 400.000000 400.000000"
 preserveAspectRatio="xMidYMid meet">
<metadata>
Created by potrace 1.11, written by Peter Selinger 2001-2013
</metadata>
<g transform="translate(0.000000,400.000000) scale(0.100000,-0.100000)"
fill="#000000" stroke="none">
<path d="M0 2000 l0 -2000 2000 0 2000 0 0 2000 0 2000 -2000 0 -2000 0 0
-2000z m1085 1081 l100 -107 70 54 c119 92 231 139 356 149 219 17 361 -87
604 -441 207 -303 402 -482 619 -568 74 -29 91 -32 191 -33 139 0 197 18 319
99 98 64 160 95 190 96 43 0 -9 -95 -109 -200 -34 -36 -88 -103 -120 -150 -79
-114 -221 -255 -318 -315 -156 -96 -345 -161 -557 -191 -63 -9 -116 -17 -118
-19 -2 -2 -24 -138 -49 -304 l-46 -301 38 -46 c37 -44 38 -47 20 -60 -39 -28
-54 -18 -57 39 l-3 52 -18 -58 -18 -58 -30 22 -31 21 34 35 33 35 -52 -26 -52
-26 -9 32 -8 33 73 3 c40 2 73 7 73 12 0 13 -79 542 -85 568 -5 20 -11 22 -79
22 -73 0 -75 0 -80 -27 -3 -16 -22 -147 -41 -292 -20 -146 -38 -267 -40 -270
-3 -2 -5 0 -5 5 0 21 -79 596 -82 598 -2 1 -50 14 -108 28 -181 44 -333 127
-477 262 -134 125 -222 262 -265 411 -56 196 -13 497 91 644 12 16 21 33 21
39 0 5 -36 47 -79 93 -43 46 -77 86 -75 88 1 2 40 -26 86 -61 46 -35 88 -67
95 -71 10 -7 -1 23 -85 221 -17 39 -28 72 -24 71 4 0 52 -49 107 -108z m841
-2277 c36 -45 37 -47 18 -61 -33 -24 -49 -12 -54 42 l-5 50 -18 -58 -18 -58
-30 22 -31 21 34 35 33 35 -52 -26 c-29 -15 -53 -25 -53 -24 0 2 -4 18 -9 36
l-10 32 78 0 79 0 38 -46z"/>
<path d="M1376 2998 c63 -71 165 -165 170 -157 11 18 -17 75 -54 112 -54 52
-159 93 -116 45z"/>
<path d="M1830 2169 c-54 -31 -83 -81 -88 -149 -5 -71 13 -113 77 -176 150
-148 479 -208 732 -134 82 24 162 70 186 107 14 22 14 25 -3 44 -11 12 -37 30
-59 41 -22 11 -89 50 -150 86 -129 77 -220 119 -330 155 -160 52 -303 62 -365
26z"/>
</g>
</svg>
